<svg width="28" height="26" viewBox="0 0 28 26" fill="none" xmlns="http://www.w3.org/2000/svg">
<path d="M28 13C28.0001 15.7371 27.1363 18.4044 25.5317 20.6219C23.9271 22.8393 21.6635 24.4937 19.0636 25.3492C16.4636 26.2048 13.6599 26.2179 11.0521 25.3867C8.44424 24.5555 6.16529 22.9223 4.54 20.72L6.15 19.53C7.61883 21.5249 9.71803 22.9656 12.1077 23.6187C14.4973 24.2719 17.0375 24.0993 19.3168 23.1289C21.5961 22.1585 23.4812 20.4471 24.6667 18.2719C25.8521 16.0966 26.2687 13.5849 25.8488 11.1434C25.4289 8.70199 24.1971 6.47376 22.353 4.81957C20.5089 3.16539 18.1604 2.18211 15.6879 2.02898C13.2153 1.87584 10.7635 2.56181 8.72934 3.9758C6.69522 5.3898 5.19795 7.44902 4.48 9.82L5.48 9.17L6.6 10.83L3.6 12.83C3.42323 12.9492 3.21301 13.0087 3 13C2.8362 13.0002 2.67484 12.9603 2.53012 12.8835C2.38539 12.8068 2.26173 12.6957 2.17 12.56L0.17 9.56L1.83 8.44L2.51 9.44C3.37762 6.4342 5.30011 3.8421 7.92467 2.13937C10.5492 0.436638 13.6998 -0.262509 16.7982 0.170227C19.8967 0.602963 22.7351 2.13856 24.7928 4.49521C26.8504 6.85187 27.9891 9.87151 28 13ZM14 6V13C13.9992 13.1316 14.0245 13.2621 14.0742 13.3839C14.124 13.5057 14.1973 13.6166 14.29 13.71L17.29 16.71L18.71 15.29L16 12.59V6H14Z" fill="white"/>
</svg>
