<svg width="22" height="23" viewBox="0 0 22 23" fill="none" xmlns="http://www.w3.org/2000/svg">
<path d="M8.30684 19.8328V16.9194C8.30682 16.1784 8.90927 15.5763 9.6557 15.5713H12.3899C13.1399 15.5713 13.7478 16.1749 13.7478 16.9194V19.8419C13.7477 20.471 14.2535 20.9853 14.8871 21H16.7099C18.527 21 20 19.5376 20 17.7337V9.44594C19.9903 8.73629 19.6547 8.06988 19.0886 7.63638L12.8547 2.65104C11.7626 1.78299 10.2101 1.78299 9.11797 2.65104L2.91139 7.64543C2.34319 8.07717 2.007 8.74468 2 9.45499V17.7337C2 19.5376 3.47304 21 5.29013 21H7.11291C7.76223 21 8.28861 20.4774 8.28861 19.8328" stroke="white" stroke-width="2.3" stroke-linecap="round" stroke-linejoin="round"/>
</svg>
