<svg width="21" height="23" viewBox="0 0 21 23" fill="none" xmlns="http://www.w3.org/2000/svg">
<path d="M8.5 19.5C8.5 20.0304 8.71071 20.5391 9.08579 20.9142C9.46086 21.2893 9.96957 21.5 10.5 21.5C11.0304 21.5 11.5391 21.2893 11.9142 20.9142C12.2893 20.5391 12.5 20.0304 12.5 19.5M11.427 3.066L10.967 3L10.999 2.536L11 2.5V1.5C11 1.36739 10.9473 1.24021 10.8536 1.14645C10.7598 1.05268 10.6326 1 10.5 1C10.3674 1 10.2402 1.05268 10.1464 1.14645C10.0527 1.24021 10 1.36739 10 1.5V2.5L10.001 2.536L10.034 3L9.574 3.066C8.02651 3.28894 6.6112 4.06211 5.58746 5.2438C4.56372 6.42548 4.00014 7.93653 4 9.5V16H2.5C2.10218 16 1.72064 16.158 1.43934 16.4393C1.15804 16.7206 1 17.1022 1 17.5C1 17.8978 1.15804 18.2794 1.43934 18.5607C1.72064 18.842 2.10218 19 2.5 19H18.5C18.8978 19 19.2794 18.842 19.5607 18.5607C19.842 18.2794 20 17.8978 20 17.5C20 17.1022 19.842 16.7206 19.5607 16.4393C19.2794 16.158 18.8978 16 18.5 16H17V9.5C16.9999 7.93668 16.4365 6.42575 15.4129 5.24409C14.3894 4.06242 12.9743 3.28916 11.427 3.066Z" stroke="white" stroke-width="2"/>
</svg>
