<svg width="23" height="23" viewBox="0 0 23 23" fill="none" xmlns="http://www.w3.org/2000/svg">
<path d="M22.218 8.6825L20.0445 7.958L21.068 5.911C21.1718 5.69674 21.2065 5.45556 21.1673 5.22074C21.1282 4.98592 21.0171 4.76903 20.8495 4.6L18.4 2.1505C18.2301 1.9804 18.0111 1.86784 17.7739 1.82865C17.5367 1.78945 17.2931 1.8256 17.0775 1.932L15.0305 2.9555L14.306 0.782004C14.2295 0.555445 14.0842 0.358373 13.8905 0.218214C13.6967 0.0780548 13.4641 0.00177982 13.225 3.83356e-06H9.775C9.53391 -0.000618502 9.29872 0.0745456 9.10268 0.214872C8.90663 0.355198 8.75965 0.55359 8.6825 0.782004L7.958 2.9555L5.911 1.932C5.69674 1.82825 5.45556 1.79355 5.22074 1.83268C4.98592 1.87182 4.76903 1.98287 4.6 2.1505L2.1505 4.6C1.9804 4.76993 1.86784 4.9889 1.82865 5.22613C1.78945 5.46335 1.8256 5.70689 1.932 5.9225L2.9555 7.9695L0.782004 8.694C0.555445 8.77052 0.358373 8.91575 0.218214 9.1095C0.0780548 9.30325 0.00177982 9.53588 3.83356e-06 9.775V13.225C-0.000618502 13.4661 0.0745456 13.7013 0.214872 13.8973C0.355198 14.0934 0.55359 14.2403 0.782004 14.3175L2.9555 15.042L1.932 17.089C1.82825 17.3033 1.79355 17.5444 1.83268 17.7793C1.87182 18.0141 1.98287 18.231 2.1505 18.4L4.6 20.8495C4.76993 21.0196 4.9889 21.1322 5.22613 21.1714C5.46335 21.2105 5.70689 21.1744 5.9225 21.068L7.9695 20.0445L8.694 22.218C8.77115 22.4464 8.91813 22.6448 9.11418 22.7851C9.31022 22.9255 9.54541 23.0006 9.7865 23H13.2365C13.4776 23.0006 13.7128 22.9255 13.9088 22.7851C14.1049 22.6448 14.2519 22.4464 14.329 22.218L15.0535 20.0445L17.1005 21.068C17.3134 21.1691 17.5522 21.2024 17.7846 21.1633C18.0171 21.1243 18.2319 21.0147 18.4 20.8495L20.8495 18.4C21.0196 18.2301 21.1322 18.0111 21.1714 17.7739C21.2105 17.5367 21.1744 17.2931 21.068 17.0775L20.0445 15.0305L22.218 14.306C22.4446 14.2295 22.6416 14.0842 22.7818 13.8905C22.9219 13.6967 22.9982 13.4641 23 13.225V9.775C23.0006 9.53391 22.9255 9.29872 22.7851 9.10268C22.6448 8.90663 22.4464 8.75965 22.218 8.6825ZM20.7 12.397L19.32 12.857C19.0027 12.9599 18.7115 13.1307 18.4668 13.3574C18.222 13.5841 18.0295 13.8613 17.9026 14.1698C17.7757 14.4783 17.7174 14.8108 17.7318 15.1441C17.7462 15.4774 17.8329 15.8036 17.986 16.1L18.6415 17.411L17.3765 18.676L16.1 17.986C15.8051 17.8391 15.482 17.7572 15.1528 17.746C14.8235 17.7348 14.4956 17.7944 14.1914 17.9209C13.8871 18.0474 13.6136 18.2378 13.3894 18.4792C13.1651 18.7205 12.9953 19.0073 12.8915 19.32L12.4315 20.7H10.603L10.143 19.32C10.0401 19.0027 9.86933 18.7115 9.64263 18.4668C9.41594 18.222 9.13871 18.0295 8.83018 17.9026C8.52166 17.7757 8.18921 17.7174 7.85591 17.7318C7.52261 17.7462 7.19643 17.8329 6.9 17.986L5.589 18.6415L4.324 17.3765L5.014 16.1C5.16706 15.8036 5.2538 15.4774 5.2682 15.1441C5.28261 14.8108 5.22433 14.4783 5.09742 14.1698C4.97051 13.8613 4.778 13.5841 4.53324 13.3574C4.28848 13.1307 3.99734 12.9599 3.68 12.857L2.3 12.397V10.603L3.68 10.143C3.99734 10.0401 4.28848 9.86933 4.53324 9.64263C4.778 9.41594 4.97051 9.13871 5.09742 8.83018C5.22433 8.52166 5.28261 8.18921 5.2682 7.85591C5.2538 7.52261 5.16706 7.19643 5.014 6.9L4.3585 5.6235L5.6235 4.3585L6.9 5.014C7.19643 5.16706 7.52261 5.2538 7.85591 5.2682C8.18921 5.28261 8.52166 5.22433 8.83018 5.09742C9.13871 4.97051 9.41594 4.778 9.64263 4.53324C9.86933 4.28848 10.0401 3.99734 10.143 3.68L10.603 2.3H12.397L12.857 3.68C12.9599 3.99734 13.1307 4.28848 13.3574 4.53324C13.5841 4.778 13.8613 4.97051 14.1698 5.09742C14.4783 5.22433 14.8108 5.28261 15.1441 5.2682C15.4774 5.2538 15.8036 5.16706 16.1 5.014L17.411 4.3585L18.676 5.6235L17.986 6.9C17.8391 7.19491 17.7572 7.51795 17.746 7.84724C17.7348 8.17654 17.7944 8.5044 17.9209 8.80864C18.0474 9.11287 18.2378 9.38638 18.4792 9.61064C18.7205 9.83491 19.0073 10.0047 19.32 10.1085L20.7 10.5685V12.397ZM11.5 6.9C10.5902 6.9 9.70084 7.16979 8.94438 7.67524C8.18791 8.1807 7.59832 8.89912 7.25015 9.73966C6.90199 10.5802 6.8109 11.5051 6.98839 12.3974C7.16588 13.2897 7.60399 14.1094 8.24731 14.7527C8.89063 15.396 9.71027 15.8341 10.6026 16.0116C11.4949 16.1891 12.4198 16.098 13.2603 15.7498C14.1009 15.4017 14.8193 14.8121 15.3248 14.0556C15.8302 13.2992 16.1 12.4098 16.1 11.5C16.1 10.28 15.6154 9.10998 14.7527 8.24731C13.89 7.38464 12.72 6.9 11.5 6.9ZM11.5 13.8C11.0451 13.8 10.6004 13.6651 10.2222 13.4124C9.84396 13.1597 9.54916 12.8004 9.37508 12.3802C9.201 11.9599 9.15545 11.4974 9.24419 11.0513C9.33294 10.6051 9.55199 10.1953 9.87366 9.87366C10.1953 9.55199 10.6051 9.33294 11.0513 9.24419C11.4974 9.15545 11.9599 9.201 12.3802 9.37508C12.8004 9.54916 13.1597 9.84396 13.4124 10.2222C13.6651 10.6004 13.8 11.0451 13.8 11.5C13.8 12.11 13.5577 12.695 13.1263 13.1263C12.695 13.5577 12.11 13.8 11.5 13.8Z" fill="white"/>
</svg>
